{
 "cells": [
  {
   "cell_type": "markdown",
   "id": "672f5b31",
   "metadata": {},
   "source": [
    "This is a compilation of examples of uses of RSRS"
   ]
  },
  {
   "cell_type": "code",
   "execution_count": 16,
   "id": "e0ae5132",
   "metadata": {},
   "outputs": [
    {
     "data": {
      "text/plain": [
       "CompletedProcess(args=['chmod', '+x', 'run_test.sh'], returncode=0)"
      ]
     },
     "execution_count": 16,
     "metadata": {},
     "output_type": "execute_result"
    }
   ],
   "source": [
    "import json\n",
    "import numpy as np\n",
    "import subprocess\n",
    "\n",
    "pi = np.pi\n",
    "\n",
    "data_type_args = {\n",
    "    \"structured_operator_type\": \"KiFMMLaplaceOperator\",\n",
    "    \"precision\": \"Double\"\n",
    "}\n",
    "\n",
    "scenario_args = {\n",
    "    \"id_tols\": [1e-2, 1e-4, 1e-6],\n",
    "    \"dim_args\": [{\"Kappa\": 10.0 * pi}],\n",
    "    \"geometry_type\": \"SphereSurface\",\n",
    "}\n",
    "\n",
    "output_args = {\n",
    "    \"solve\": {\"True\": 1e-5},\n",
    "    \"plot\": True,\n",
    "    \"dense_errors\": False,\n",
    "    \"results_output\": \"All\"\n",
    "}\n",
    "\n",
    "rsrs_args = {\n",
    "    \"oversampling\": 8,\n",
    "    \"oversampling_diag_blocks\": 16,\n",
    "    \"initial_num_samples\": 420,\n",
    "    \"null_method\": \"Projection\",\n",
    "    \"near_block_extraction_method\": \"LuLstSq\",\n",
    "    \"diag_block_extraction_method\": \"LuLstSq\",\n",
    "    \"lu_pivot_method\": \"Lu\",\n",
    "    \"diag_pivot_method\": \"Lu\",\n",
    "    \"tol_null\": 1e-10,\n",
    "    \"tol_id\": 1e-2,\n",
    "    \"tol_ext_near\": 1e-10,\n",
    "    \"tol_diag_ext\": 1e-10,\n",
    "    \"min_rank\": 4,\n",
    "    \"hermitian\": True,\n",
    "    \"rank_picking\": \"Min\"\n",
    "}\n",
    "\n",
    "def json_for_bash(obj):\n",
    "    return json.dumps(obj).replace(\"'\", \"'\\\"'\\\"'\")\n",
    "\n",
    "data_type_args_json = json_for_bash(data_type_args)\n",
    "scenario_args_json = json_for_bash(scenario_args)\n",
    "output_args_json = json_for_bash(output_args)\n",
    "rsrs_args_json = \"null\" if rsrs_args is None else json_for_bash(rsrs_args)\n",
    "\n",
    "bash_script = f\"\"\"#!/bin/bash\n",
    "export OPENBLAS_NUM_THREADS=1\n",
    "cargo run --release '{data_type_args_json}' '{scenario_args_json}' '{rsrs_args_json}' '{output_args_json}'\n",
    "\"\"\"\n",
    "\n",
    "script_filename = \"run_test.sh\"\n",
    "with open(script_filename, \"w\") as f:\n",
    "    f.write(bash_script)\n",
    "\n",
    "subprocess.run([\"chmod\", \"+x\", script_filename], check=True)\n",
    "\n"
   ]
  },
  {
   "cell_type": "code",
   "execution_count": 17,
   "id": "3b940bb8",
   "metadata": {},
   "outputs": [
    {
     "name": "stdout",
     "output_type": "stream",
     "text": [
      "\u001b[1m\u001b[32m   Compiling\u001b[0m bempp-rsrs v0.0.1-dev (/home/mfierro/rsrs-exps)\n",
      "\u001b[K\u001b[1m\u001b[32m    Finished\u001b[0m `release` profile [optimized + debuginfo] target(s) in 8.76s  \n",
      "\u001b[1m\u001b[33mwarning\u001b[0m\u001b[1m:\u001b[0m the following packages contain code that will be rejected by a future version of Rust: nom v3.2.1\n",
      "\u001b[1m\u001b[36mnote\u001b[0m\u001b[1m:\u001b[0m to see what the problems were, use the option `--future-incompat-report`, or run `cargo report future-incompatibilities --id 1`\n",
      "\u001b[1m\u001b[32m     Running\u001b[0m `target/release/bempp-rsrs '{\"structured_operator_type\": \"KiFMMLaplaceOperator\", \"precision\": \"Double\"}' '{\"id_tols\": [0.01, 0.0001, 1e-06], \"dim_args\": [{\"Kappa\": 31.41592653589793}], \"geometry_type\": \"SphereSurface\"}' '{\"oversampling\": 8, \"oversampling_diag_blocks\": 16, \"initial_num_samples\": 420, \"null_method\": \"Projection\", \"near_block_extraction_method\": \"LuLstSq\", \"diag_block_extraction_method\": \"LuLstSq\", \"lu_pivot_method\": \"Lu\", \"diag_pivot_method\": \"Lu\", \"tol_null\": 1e-10, \"tol_id\": 0.01, \"tol_ext_near\": 1e-10, \"tol_diag_ext\": 1e-10, \"min_rank\": 4, \"hermitian\": true, \"rank_picking\": \"Min\"}' '{\"solve\": {\"True\": 1e-05}, \"plot\": true, \"dense_errors\": false, \"results_output\": \"All\"}'`\n",
      "\n",
      "Number of dofs: 48090\n",
      "Warning: problem types for this operator have not been defined, so a random vector is returned.\n",
      "GMRES converged in 3 iterations with relative residual +1.1284106936484861E-7.\n",
      "Setup octree with 48090 points and maximum level 5\n",
      "Test: 48090 points, tol:0.01\n",
      "%%%%%%%%%%%%%%%%%%%%%%%%%%%%%%%%%%%%%%%%%%%%%%%%%\n",
      "\n",
      "Computing Indices...\n",
      "\n",
      "New 7330 boxes, and active indices: 48090\n",
      "Current Level: 5. Indices computed in 7.677685ms\n",
      "\n",
      "\n",
      "Number of merged boxes: 0\n",
      "\n",
      "Sampling step. Sampling new 420 vectors\n",
      "Sample generation: 317.542µs\n",
      "Multiplication: 41.497679ms (1.383255ms per sample)\n",
      "Filling: 118.607208ms\n",
      "Current number of samples: 1\n",
      "\n",
      "Sample generation: 11.116026ms\n",
      "Multiplication: 1.490534213s (49.684473ms per sample)\n",
      "Filling: 98.649571ms\n",
      "Current number of samples: 31\n",
      "\n",
      "Sample generation: 11.200229ms\n",
      "Multiplication: 1.453617462s (48.453915ms per sample)\n",
      "Filling: 98.91546ms\n",
      "Current number of samples: 61\n",
      "\n",
      "Sample generation: 11.801382ms\n",
      "Multiplication: 1.484926969s (49.497565ms per sample)\n",
      "Filling: 99.320683ms\n",
      "Current number of samples: 91\n",
      "\n",
      "Sample generation: 12.591069ms\n",
      "Multiplication: 1.549124286s (51.637476ms per sample)\n",
      "Filling: 102.581799ms\n",
      "Current number of samples: 121\n",
      "\n",
      "Sample generation: 11.938375ms\n",
      "Multiplication: 1.498081339s (49.936044ms per sample)\n",
      "Filling: 100.297954ms\n",
      "Current number of samples: 151\n",
      "\n",
      "Sample generation: 11.469116ms\n",
      "Multiplication: 1.520561335s (50.685377ms per sample)\n",
      "Filling: 98.783168ms\n",
      "Current number of samples: 181\n",
      "\n",
      "Sample generation: 11.954265ms\n",
      "Multiplication: 1.569631829s (52.32106ms per sample)\n",
      "Filling: 100.489524ms\n",
      "Current number of samples: 211\n",
      "\n",
      "Sample generation: 12.564112ms\n",
      "Multiplication: 1.549745604s (51.658186ms per sample)\n",
      "Filling: 101.462532ms\n",
      "Current number of samples: 241\n",
      "\n",
      "Sample generation: 11.935622ms\n",
      "Multiplication: 1.507064568s (50.235485ms per sample)\n",
      "Filling: 100.201592ms\n",
      "Current number of samples: 271\n",
      "\n",
      "Sample generation: 11.113412ms\n",
      "Multiplication: 1.503511827s (50.11706ms per sample)\n",
      "Filling: 97.808524ms\n",
      "Current number of samples: 301\n",
      "\n",
      "Sample generation: 11.584332ms\n",
      "Multiplication: 1.525439742s (50.847991ms per sample)\n",
      "Filling: 99.964517ms\n",
      "Current number of samples: 331\n",
      "\n",
      "Sample generation: 11.247986ms\n",
      "Multiplication: 1.5262227s (50.87409ms per sample)\n",
      "Filling: 99.515092ms\n",
      "Current number of samples: 361\n",
      "\n",
      "Sample generation: 11.724263ms\n",
      "Multiplication: 1.51491083s (50.497027ms per sample)\n",
      "Filling: 98.384551ms\n",
      "Current number of samples: 391\n",
      "\n",
      "Total samples: 420\n",
      "Sampling time: 22902ms\n",
      "\n",
      "Active samples: 284\n",
      "\n",
      "Starting ID step\n",
      "ID calculations in 633.333672ms\n",
      "ID postprocessing in 3.297257ms\n",
      "ID step in 641.2241ms\n",
      "ID updated in 115.427954ms\n",
      "\n",
      "Start LU step\n",
      "Batches computed in 7.047962ms\n",
      "Active samples vs total samples: 284, 420\n",
      "LU step in 195ms, with updates in 1034ms\n",
      "\n",
      "End level cycle. Summary:\n",
      "-------------------------\n",
      "Elapsed time: 24 s\n",
      "Sketch Points: 23654\n",
      "Residual Points: 24436\n",
      "Current Number of Samples: 420 of which 284 are active\n",
      "\n",
      "%%%%%%%%%%%%%%%%%%%%%%%%%%%%%%%%%%%%%%%%%%%%%%%%%\n",
      "\n",
      "Computing Indices...\n",
      "\n",
      "New 3312 boxes, with 23654 active indices.\n",
      "Current Level: 4. Indices computed in 12.18441ms\n",
      "\n",
      "\n",
      "Number of merged boxes: 574\n",
      "\n",
      "Sampling step. Sampling new 36 vectors\n",
      "Sample generation: 311.931µs\n",
      "Multiplication: 46.065102ms (1.535503ms per sample)\n",
      "Filling: 2.820603ms\n",
      "Current number of samples: 1\n",
      "\n",
      "Sample generation: 11.858254ms\n",
      "Multiplication: 1.503729833s (50.124327ms per sample)\n",
      "Filling: 90.479892ms\n",
      "Current number of samples: 31\n",
      "\n",
      "Total samples: 456\n",
      "Sampling time: 2736ms\n",
      "\n",
      "Extra active samples: 172. Min samples: 456\n",
      "Update times: 63ms, 652ms\n",
      "Active samples: 456\n",
      "\n",
      "Starting ID step\n",
      "ID calculations in 295.437387ms\n",
      "ID postprocessing in 1.560135ms\n",
      "ID step in 299.74692ms\n",
      "ID updated in 65.309786ms\n",
      "\n",
      "Start LU step\n",
      "Batches computed in 3.312565ms\n",
      "Active samples vs total samples: 456, 456\n",
      "LU step in 421ms, with updates in 1229ms\n",
      "\n",
      "End level cycle. Summary:\n",
      "-------------------------\n",
      "Elapsed time: 5 s\n",
      "Sketch Points: 6014\n",
      "Residual Points: 42076\n",
      "Current Number of Samples: 456 of which 456 are active\n",
      "\n",
      "%%%%%%%%%%%%%%%%%%%%%%%%%%%%%%%%%%%%%%%%%%%%%%%%%\n",
      "\n",
      "Computing Indices...\n",
      "\n",
      "New 512 boxes, with 6014 active indices.\n",
      "Current Level: 3. Indices computed in 2.965127ms\n",
      "\n",
      "\n",
      "Number of merged boxes: 272\n",
      "\n",
      "Sampling step. Sampling new 33 vectors\n",
      "Sample generation: 324.284µs\n",
      "Multiplication: 46.265301ms (1.542176ms per sample)\n",
      "Filling: 2.514142ms\n",
      "Current number of samples: 1\n",
      "\n",
      "Sample generation: 12.169423ms\n",
      "Multiplication: 1.559197822s (51.97326ms per sample)\n",
      "Filling: 84.028653ms\n",
      "Current number of samples: 31\n",
      "\n",
      "Total samples: 489\n",
      "Sampling time: 2702ms\n",
      "\n",
      "Extra active samples: 33. Min samples: 489\n",
      "Update times: 45ms, 304ms\n",
      "Active samples: 489\n",
      "\n",
      "Starting ID step\n",
      "ID calculations in 80.220422ms\n",
      "ID postprocessing in 530.345µs\n",
      "ID step in 81.455992ms\n",
      "ID updated in 18.531043ms\n",
      "\n",
      "Start LU step\n",
      "Batches computed in 742.015µs\n",
      "Active samples vs total samples: 489, 489\n",
      "LU step in 215ms, with updates in 425ms\n",
      "\n",
      "End level cycle. Summary:\n",
      "-------------------------\n",
      "Elapsed time: 3 s\n",
      "Sketch Points: 997\n",
      "Residual Points: 47093\n",
      "Current Number of Samples: 489 of which 489 are active\n",
      "\n",
      "%%%%%%%%%%%%%%%%%%%%%%%%%%%%%%%%%%%%%%%%%%%%%%%%%\n",
      "\n",
      "Computing Indices...\n",
      "\n",
      "New 64 boxes, with 997 active indices.\n",
      "Current Level: 2. Indices computed in 559.711µs\n",
      "\n",
      "\n",
      "Number of merged boxes: 56\n",
      "\n",
      "Active samples: 489\n",
      "\n",
      "Starting ID step\n",
      "ID calculations in 10.882796ms\n",
      "ID postprocessing in 141.598µs\n",
      "ID step in 11.134182ms\n",
      "ID updated in 5.834141ms\n",
      "\n",
      "Start LU step\n",
      "Batches computed in 153.13µs\n",
      "Active samples vs total samples: 489, 489\n",
      "LU step in 72ms, with updates in 123ms\n",
      "\n",
      "End level cycle. Summary:\n",
      "-------------------------\n",
      "Elapsed time: 0 s\n",
      "Sketch Points: 171\n",
      "Residual Points: 47919\n",
      "Current Number of Samples: 489 of which 489 are active\n",
      "\n",
      "-------------------------\n",
      "\n",
      "Reached lower level: 1\n",
      "Minimum samples: 187\n",
      "Tree cycle elapsed time: 34 s\n",
      "Extracting diagonal blocks with 489 active samples\n",
      "Extraction time: 0s\n",
      "\n",
      "Total elapsed time: 34.772981807s (28340ms for sampling, 6432ms for RSRS), with 489 active samples\n",
      "\n",
      "%%%%%%%%%%%%%%%%%%%%%%%%%%%%%%%%%%%%%%%%%%%%%%%%%\n",
      "\n",
      "GMRES converged in 2 iterations with relative residual +4.1538644369142863E-7.\n",
      "LU: 903\n",
      "ID: 1032\n",
      "Other: 31\n",
      "Update ID: 311\n",
      "Update LU: 3767\n",
      "Extraction: 323\n",
      "Total RSRS: 6367\n",
      "Total Sampling: 28340\n",
      "           \u001b[37m•\u001b[0m\u001b[37m•\u001b[0m\u001b[31m•\u001b[0m\u001b[31m•\u001b[0m\u001b[32m•\u001b[0m             \n",
      "       \u001b[37m•\u001b[0m\u001b[37m•\u001b[0m\u001b[37m•\u001b[0m\u001b[37m•\u001b[0m\u001b[37m•\u001b[0m\u001b[37m•\u001b[0m\u001b[31m•\u001b[0m\u001b[31m•\u001b[0m\u001b[32m•\u001b[0m\u001b[33m•\u001b[0m\u001b[36m•\u001b[0m\u001b[36m•\u001b[0m\u001b[36m•\u001b[0m         \n",
      "     \u001b[37m•\u001b[0m\u001b[37m•\u001b[0m\u001b[37m•\u001b[0m\u001b[37m•\u001b[0m\u001b[37m•\u001b[0m\u001b[37m•\u001b[0m\u001b[37m•\u001b[0m\u001b[37m•\u001b[0m\u001b[31m•\u001b[0m\u001b[31m•\u001b[0m\u001b[32m•\u001b[0m\u001b[33m•\u001b[0m\u001b[36m•\u001b[0m\u001b[36m•\u001b[0m\u001b[36m•\u001b[0m\u001b[36m•\u001b[0m\u001b[36m•\u001b[0m       \u001b[31m•\u001b[0m LU 2.60% (903)\n",
      "    \u001b[37m•\u001b[0m\u001b[37m•\u001b[0m\u001b[37m•\u001b[0m\u001b[37m•\u001b[0m\u001b[37m•\u001b[0m\u001b[37m•\u001b[0m\u001b[37m•\u001b[0m\u001b[37m•\u001b[0m\u001b[37m•\u001b[0m\u001b[31m•\u001b[0m\u001b[32m•\u001b[0m\u001b[32m•\u001b[0m\u001b[36m•\u001b[0m\u001b[36m•\u001b[0m\u001b[36m•\u001b[0m\u001b[36m•\u001b[0m\u001b[36m•\u001b[0m\u001b[36m•\u001b[0m\u001b[36m•\u001b[0m      \n",
      "  \u001b[37m•\u001b[0m\u001b[37m•\u001b[0m\u001b[37m•\u001b[0m\u001b[37m•\u001b[0m\u001b[37m•\u001b[0m\u001b[37m•\u001b[0m\u001b[37m•\u001b[0m\u001b[37m•\u001b[0m\u001b[37m•\u001b[0m\u001b[37m•\u001b[0m\u001b[37m•\u001b[0m\u001b[31m•\u001b[0m\u001b[32m•\u001b[0m\u001b[33m•\u001b[0m\u001b[36m•\u001b[0m\u001b[36m•\u001b[0m\u001b[36m•\u001b[0m\u001b[36m•\u001b[0m\u001b[36m•\u001b[0m\u001b[36m•\u001b[0m\u001b[36m•\u001b[0m\u001b[37m•\u001b[0m\u001b[37m•\u001b[0m    \u001b[32m•\u001b[0m ID 2.97% (1032)\n",
      "  \u001b[37m•\u001b[0m\u001b[37m•\u001b[0m\u001b[37m•\u001b[0m\u001b[37m•\u001b[0m\u001b[37m•\u001b[0m\u001b[37m•\u001b[0m\u001b[37m•\u001b[0m\u001b[37m•\u001b[0m\u001b[37m•\u001b[0m\u001b[37m•\u001b[0m\u001b[37m•\u001b[0m\u001b[31m•\u001b[0m\u001b[32m•\u001b[0m\u001b[36m•\u001b[0m\u001b[36m•\u001b[0m\u001b[36m•\u001b[0m\u001b[36m•\u001b[0m\u001b[36m•\u001b[0m\u001b[36m•\u001b[0m\u001b[37m•\u001b[0m\u001b[37m•\u001b[0m\u001b[37m•\u001b[0m\u001b[37m•\u001b[0m    \n",
      " \u001b[37m•\u001b[0m\u001b[37m•\u001b[0m\u001b[37m•\u001b[0m\u001b[37m•\u001b[0m\u001b[37m•\u001b[0m\u001b[37m•\u001b[0m\u001b[37m•\u001b[0m\u001b[37m•\u001b[0m\u001b[37m•\u001b[0m\u001b[37m•\u001b[0m\u001b[37m•\u001b[0m\u001b[37m•\u001b[0m\u001b[31m•\u001b[0m\u001b[32m•\u001b[0m\u001b[36m•\u001b[0m\u001b[36m•\u001b[0m\u001b[36m•\u001b[0m\u001b[36m•\u001b[0m\u001b[37m•\u001b[0m\u001b[37m•\u001b[0m\u001b[37m•\u001b[0m\u001b[37m•\u001b[0m\u001b[37m•\u001b[0m\u001b[37m•\u001b[0m\u001b[37m•\u001b[0m   \u001b[34m•\u001b[0m Other 0.09% (31)\n",
      " \u001b[37m•\u001b[0m\u001b[37m•\u001b[0m\u001b[37m•\u001b[0m\u001b[37m•\u001b[0m\u001b[37m•\u001b[0m\u001b[37m•\u001b[0m\u001b[37m•\u001b[0m\u001b[37m•\u001b[0m\u001b[37m•\u001b[0m\u001b[37m•\u001b[0m\u001b[37m•\u001b[0m\u001b[37m•\u001b[0m\u001b[31m•\u001b[0m\u001b[36m•\u001b[0m\u001b[36m•\u001b[0m\u001b[36m•\u001b[0m\u001b[37m•\u001b[0m\u001b[37m•\u001b[0m\u001b[37m•\u001b[0m\u001b[37m•\u001b[0m\u001b[37m•\u001b[0m\u001b[37m•\u001b[0m\u001b[37m•\u001b[0m\u001b[37m•\u001b[0m\u001b[37m•\u001b[0m   \n",
      "\u001b[37m•\u001b[0m\u001b[37m•\u001b[0m\u001b[37m•\u001b[0m\u001b[37m•\u001b[0m\u001b[37m•\u001b[0m\u001b[37m•\u001b[0m\u001b[37m•\u001b[0m\u001b[37m•\u001b[0m\u001b[37m•\u001b[0m\u001b[37m•\u001b[0m\u001b[37m•\u001b[0m\u001b[37m•\u001b[0m\u001b[37m•\u001b[0m\u001b[31m•\u001b[0m\u001b[36m•\u001b[0m\u001b[37m•\u001b[0m\u001b[37m•\u001b[0m\u001b[37m•\u001b[0m\u001b[37m•\u001b[0m\u001b[37m•\u001b[0m\u001b[37m•\u001b[0m\u001b[37m•\u001b[0m\u001b[37m•\u001b[0m\u001b[37m•\u001b[0m\u001b[37m•\u001b[0m\u001b[37m•\u001b[0m\u001b[37m•\u001b[0m  \u001b[33m•\u001b[0m Update ID 0.90% (311)\n",
      "\u001b[37m•\u001b[0m\u001b[37m•\u001b[0m\u001b[37m•\u001b[0m\u001b[37m•\u001b[0m\u001b[37m•\u001b[0m\u001b[37m•\u001b[0m\u001b[37m•\u001b[0m\u001b[37m•\u001b[0m\u001b[37m•\u001b[0m\u001b[37m•\u001b[0m\u001b[37m•\u001b[0m\u001b[37m•\u001b[0m\u001b[37m•\u001b[0m\u001b[37m•\u001b[0m\u001b[37m•\u001b[0m\u001b[37m•\u001b[0m\u001b[37m•\u001b[0m\u001b[37m•\u001b[0m\u001b[37m•\u001b[0m\u001b[37m•\u001b[0m\u001b[37m•\u001b[0m\u001b[37m•\u001b[0m\u001b[37m•\u001b[0m\u001b[37m•\u001b[0m\u001b[37m•\u001b[0m\u001b[37m•\u001b[0m\u001b[37m•\u001b[0m  \n",
      "\u001b[37m•\u001b[0m\u001b[37m•\u001b[0m\u001b[37m•\u001b[0m\u001b[37m•\u001b[0m\u001b[37m•\u001b[0m\u001b[37m•\u001b[0m\u001b[37m•\u001b[0m\u001b[37m•\u001b[0m\u001b[37m•\u001b[0m\u001b[37m•\u001b[0m\u001b[37m•\u001b[0m\u001b[37m•\u001b[0m\u001b[37m•\u001b[0m\u001b[37m•\u001b[0m\u001b[37m•\u001b[0m\u001b[37m•\u001b[0m\u001b[37m•\u001b[0m\u001b[37m•\u001b[0m\u001b[37m•\u001b[0m\u001b[37m•\u001b[0m\u001b[37m•\u001b[0m\u001b[37m•\u001b[0m\u001b[37m•\u001b[0m\u001b[37m•\u001b[0m\u001b[37m•\u001b[0m\u001b[37m•\u001b[0m\u001b[37m•\u001b[0m  \u001b[36m•\u001b[0m Update LU 10.85% (3767)\n",
      " \u001b[37m•\u001b[0m\u001b[37m•\u001b[0m\u001b[37m•\u001b[0m\u001b[37m•\u001b[0m\u001b[37m•\u001b[0m\u001b[37m•\u001b[0m\u001b[37m•\u001b[0m\u001b[37m•\u001b[0m\u001b[37m•\u001b[0m\u001b[37m•\u001b[0m\u001b[37m•\u001b[0m\u001b[37m•\u001b[0m\u001b[37m•\u001b[0m\u001b[37m•\u001b[0m\u001b[37m•\u001b[0m\u001b[37m•\u001b[0m\u001b[37m•\u001b[0m\u001b[37m•\u001b[0m\u001b[37m•\u001b[0m\u001b[37m•\u001b[0m\u001b[37m•\u001b[0m\u001b[37m•\u001b[0m\u001b[37m•\u001b[0m\u001b[37m•\u001b[0m\u001b[37m•\u001b[0m   \n",
      " \u001b[37m•\u001b[0m\u001b[37m•\u001b[0m\u001b[37m•\u001b[0m\u001b[37m•\u001b[0m\u001b[37m•\u001b[0m\u001b[37m•\u001b[0m\u001b[37m•\u001b[0m\u001b[37m•\u001b[0m\u001b[37m•\u001b[0m\u001b[37m•\u001b[0m\u001b[37m•\u001b[0m\u001b[37m•\u001b[0m\u001b[37m•\u001b[0m\u001b[37m•\u001b[0m\u001b[37m•\u001b[0m\u001b[37m•\u001b[0m\u001b[37m•\u001b[0m\u001b[37m•\u001b[0m\u001b[37m•\u001b[0m\u001b[37m•\u001b[0m\u001b[37m•\u001b[0m\u001b[37m•\u001b[0m\u001b[37m•\u001b[0m\u001b[37m•\u001b[0m\u001b[37m•\u001b[0m   \u001b[37m•\u001b[0m Sampling 81.65% (28340)\n",
      "  \u001b[37m•\u001b[0m\u001b[37m•\u001b[0m\u001b[37m•\u001b[0m\u001b[37m•\u001b[0m\u001b[37m•\u001b[0m\u001b[37m•\u001b[0m\u001b[37m•\u001b[0m\u001b[37m•\u001b[0m\u001b[37m•\u001b[0m\u001b[37m•\u001b[0m\u001b[37m•\u001b[0m\u001b[37m•\u001b[0m\u001b[37m•\u001b[0m\u001b[37m•\u001b[0m\u001b[37m•\u001b[0m\u001b[37m•\u001b[0m\u001b[37m•\u001b[0m\u001b[37m•\u001b[0m\u001b[37m•\u001b[0m\u001b[37m•\u001b[0m\u001b[37m•\u001b[0m\u001b[37m•\u001b[0m\u001b[37m•\u001b[0m    \n",
      "  \u001b[37m•\u001b[0m\u001b[37m•\u001b[0m\u001b[37m•\u001b[0m\u001b[37m•\u001b[0m\u001b[37m•\u001b[0m\u001b[37m•\u001b[0m\u001b[37m•\u001b[0m\u001b[37m•\u001b[0m\u001b[37m•\u001b[0m\u001b[37m•\u001b[0m\u001b[37m•\u001b[0m\u001b[37m•\u001b[0m\u001b[37m•\u001b[0m\u001b[37m•\u001b[0m\u001b[37m•\u001b[0m\u001b[37m•\u001b[0m\u001b[37m•\u001b[0m\u001b[37m•\u001b[0m\u001b[37m•\u001b[0m\u001b[37m•\u001b[0m\u001b[37m•\u001b[0m\u001b[37m•\u001b[0m\u001b[37m•\u001b[0m    \u001b[38;2;128;128;128m•\u001b[0m Extraction Sampling 0.00% (0)\n",
      "    \u001b[37m•\u001b[0m\u001b[37m•\u001b[0m\u001b[37m•\u001b[0m\u001b[37m•\u001b[0m\u001b[37m•\u001b[0m\u001b[37m•\u001b[0m\u001b[37m•\u001b[0m\u001b[37m•\u001b[0m\u001b[37m•\u001b[0m\u001b[37m•\u001b[0m\u001b[37m•\u001b[0m\u001b[37m•\u001b[0m\u001b[37m•\u001b[0m\u001b[37m•\u001b[0m\u001b[37m•\u001b[0m\u001b[37m•\u001b[0m\u001b[37m•\u001b[0m\u001b[37m•\u001b[0m\u001b[37m•\u001b[0m      \n",
      "     \u001b[37m•\u001b[0m\u001b[37m•\u001b[0m\u001b[37m•\u001b[0m\u001b[37m•\u001b[0m\u001b[37m•\u001b[0m\u001b[37m•\u001b[0m\u001b[37m•\u001b[0m\u001b[37m•\u001b[0m\u001b[37m•\u001b[0m\u001b[37m•\u001b[0m\u001b[37m•\u001b[0m\u001b[37m•\u001b[0m\u001b[37m•\u001b[0m\u001b[37m•\u001b[0m\u001b[37m•\u001b[0m\u001b[37m•\u001b[0m\u001b[37m•\u001b[0m       \u001b[35m•\u001b[0m Extraction 0.93% (323)\n",
      "       \u001b[37m•\u001b[0m\u001b[37m•\u001b[0m\u001b[37m•\u001b[0m\u001b[37m•\u001b[0m\u001b[37m•\u001b[0m\u001b[37m•\u001b[0m\u001b[37m•\u001b[0m\u001b[37m•\u001b[0m\u001b[37m•\u001b[0m\u001b[37m•\u001b[0m\u001b[37m•\u001b[0m\u001b[37m•\u001b[0m\u001b[37m•\u001b[0m         \n",
      "           \u001b[37m•\u001b[0m\u001b[37m•\u001b[0m\u001b[37m•\u001b[0m\u001b[37m•\u001b[0m\u001b[37m•\u001b[0m             \n",
      "Test: 48090 points, tol:0.0001\n",
      "%%%%%%%%%%%%%%%%%%%%%%%%%%%%%%%%%%%%%%%%%%%%%%%%%\n",
      "\n",
      "Computing Indices...\n",
      "\n",
      "New 7330 boxes, and active indices: 48090\n",
      "Current Level: 5. Indices computed in 8.031924ms\n",
      "\n",
      "\n",
      "Number of merged boxes: 0\n",
      "\n",
      "Sampling step. Sampling new 420 vectors\n",
      "Sample generation: 321.449µs\n",
      "Multiplication: 41.559817ms (1.385327ms per sample)\n",
      "Filling: 111.914107ms\n",
      "Current number of samples: 1\n",
      "\n",
      "Sample generation: 11.438608ms\n",
      "Multiplication: 1.402151709s (46.73839ms per sample)\n",
      "Filling: 88.357445ms\n",
      "Current number of samples: 31\n",
      "\n",
      "Sample generation: 10.868657ms\n",
      "Multiplication: 1.405127602s (46.837586ms per sample)\n",
      "Filling: 87.822673ms\n",
      "Current number of samples: 61\n",
      "\n",
      "Sample generation: 12.021274ms\n",
      "Multiplication: 1.494755499s (49.825183ms per sample)\n",
      "Filling: 90.613805ms\n",
      "Current number of samples: 91\n",
      "\n",
      "Sample generation: 12.449742ms\n",
      "Multiplication: 1.506769459s (50.225648ms per sample)\n",
      "Filling: 90.742348ms\n",
      "Current number of samples: 121\n",
      "\n",
      "Sample generation: 12.241098ms\n",
      "Multiplication: 1.476230531s (49.207684ms per sample)\n",
      "Filling: 90.94916ms\n",
      "Current number of samples: 151\n",
      "\n",
      "Sample generation: 11.771804ms\n",
      "Multiplication: 1.506909337s (50.230311ms per sample)\n",
      "Filling: 90.176675ms\n",
      "Current number of samples: 181\n",
      "\n",
      "Sample generation: 11.863927ms\n",
      "Multiplication: 1.435144739s (47.838157ms per sample)\n",
      "Filling: 88.613812ms\n",
      "Current number of samples: 211\n",
      "\n",
      "Sample generation: 11.160972ms\n",
      "Multiplication: 1.432228638s (47.740954ms per sample)\n",
      "Filling: 87.888592ms\n",
      "Current number of samples: 241\n",
      "\n",
      "Sample generation: 13.232553ms\n",
      "Multiplication: 1.509436779s (50.314559ms per sample)\n",
      "Filling: 92.509472ms\n",
      "Current number of samples: 271\n",
      "\n",
      "Sample generation: 11.938984ms\n",
      "Multiplication: 1.525718825s (50.857294ms per sample)\n",
      "Filling: 90.519921ms\n",
      "Current number of samples: 301\n",
      "\n",
      "Sample generation: 11.959561ms\n",
      "Multiplication: 1.450541234s (48.351374ms per sample)\n",
      "Filling: 88.59523ms\n",
      "Current number of samples: 331\n",
      "\n",
      "Sample generation: 11.034524ms\n",
      "Multiplication: 1.445395708s (48.179856ms per sample)\n",
      "Filling: 86.580602ms\n",
      "Current number of samples: 361\n",
      "\n",
      "Sample generation: 12.294428ms\n",
      "Multiplication: 1.412273323s (47.075777ms per sample)\n",
      "Filling: 89.332973ms\n",
      "Current number of samples: 391\n",
      "\n",
      "Total samples: 420\n",
      "Sampling time: 21926ms\n",
      "\n",
      "Active samples: 284\n",
      "\n",
      "Starting ID step\n",
      "ID calculations in 169.416956ms\n",
      "ID postprocessing in 2.581089ms\n",
      "ID step in 176.77818ms\n",
      "ID updated in 66.071277ms\n",
      "\n",
      "Start LU step\n",
      "Batches computed in 6.259859ms\n",
      "Active samples vs total samples: 284, 420\n",
      "LU step in 153ms, with updates in 822ms\n",
      "\n",
      "End level cycle. Summary:\n",
      "-------------------------\n",
      "Elapsed time: 23 s\n",
      "Sketch Points: 40134\n",
      "Residual Points: 7956\n",
      "Current Number of Samples: 420 of which 284 are active\n",
      "\n",
      "%%%%%%%%%%%%%%%%%%%%%%%%%%%%%%%%%%%%%%%%%%%%%%%%%\n",
      "\n",
      "Computing Indices...\n",
      "\n",
      "New 3312 boxes, with 40134 active indices.\n",
      "Current Level: 4. Indices computed in 12.363178ms\n",
      "\n",
      "\n",
      "Number of merged boxes: 574\n",
      "\n",
      "Sampling step. Sampling new 301 vectors\n",
      "Sample generation: 314.946µs\n",
      "Multiplication: 42.300299ms (1.410009ms per sample)\n",
      "Filling: 2.903901ms\n",
      "Current number of samples: 1\n",
      "\n",
      "Sample generation: 11.543399ms\n",
      "Multiplication: 1.445505469s (48.183515ms per sample)\n",
      "Filling: 94.267247ms\n",
      "Current number of samples: 31\n",
      "\n",
      "Sample generation: 11.195089ms\n",
      "Multiplication: 1.46159947s (48.719982ms per sample)\n",
      "Filling: 93.000732ms\n",
      "Current number of samples: 61\n",
      "\n",
      "Sample generation: 11.836221ms\n",
      "Multiplication: 1.453757313s (48.458577ms per sample)\n",
      "Filling: 94.695511ms\n",
      "Current number of samples: 91\n",
      "\n",
      "Sample generation: 12.400907ms\n",
      "Multiplication: 1.492588912s (49.752963ms per sample)\n",
      "Filling: 95.295505ms\n",
      "Current number of samples: 121\n",
      "\n",
      "Sample generation: 10.983146ms\n",
      "Multiplication: 1.439737315s (47.991243ms per sample)\n",
      "Filling: 92.132403ms\n",
      "Current number of samples: 151\n",
      "\n",
      "Sample generation: 11.415399ms\n",
      "Multiplication: 1.467451634s (48.915054ms per sample)\n",
      "Filling: 93.621697ms\n",
      "Current number of samples: 181\n",
      "\n",
      "Sample generation: 12.493695ms\n",
      "Multiplication: 1.46966733s (48.988911ms per sample)\n",
      "Filling: 94.63502ms\n",
      "Current number of samples: 211\n",
      "\n",
      "Sample generation: 11.026589ms\n",
      "Multiplication: 1.421495659s (47.383188ms per sample)\n",
      "Filling: 92.837582ms\n",
      "Current number of samples: 241\n",
      "\n",
      "Sample generation: 10.737882ms\n",
      "Multiplication: 1.423208335s (47.440277ms per sample)\n",
      "Filling: 92.234518ms\n",
      "Current number of samples: 271\n",
      "\n",
      "Sample generation: 10.842383ms\n",
      "Multiplication: 1.46011851s (48.670617ms per sample)\n",
      "Filling: 92.469415ms\n",
      "Current number of samples: 301\n",
      "\n",
      "Total samples: 721\n",
      "Sampling time: 16519ms\n",
      "\n",
      "Extra active samples: 437. Min samples: 721\n",
      "Update times: 103ms, 1248ms\n",
      "Active samples: 721\n",
      "\n",
      "Starting ID step\n",
      "ID calculations in 1.459220689s\n",
      "ID postprocessing in 1.522073ms\n",
      "ID step in 1.463992368s\n",
      "ID updated in 158.002461ms\n",
      "\n",
      "Start LU step\n",
      "Batches computed in 3.160197ms\n",
      "Active samples vs total samples: 721, 721\n",
      "LU step in 1350ms, with updates in 2640ms\n",
      "\n",
      "End level cycle. Summary:\n",
      "-------------------------\n",
      "Elapsed time: 23 s\n",
      "Sketch Points: 12309\n",
      "Residual Points: 35781\n",
      "Current Number of Samples: 721 of which 721 are active\n",
      "\n",
      "%%%%%%%%%%%%%%%%%%%%%%%%%%%%%%%%%%%%%%%%%%%%%%%%%\n",
      "\n",
      "Computing Indices...\n",
      "\n",
      "New 512 boxes, with 12309 active indices.\n",
      "Current Level: 3. Indices computed in 3.041541ms\n",
      "\n",
      "\n",
      "Number of merged boxes: 264\n",
      "\n",
      "Sampling step. Sampling new 232 vectors\n",
      "Sample generation: 323.152µs\n",
      "Multiplication: 44.894685ms (1.496489ms per sample)\n",
      "Filling: 2.814321ms\n",
      "Current number of samples: 1\n",
      "\n",
      "Sample generation: 12.033714ms\n",
      "Multiplication: 1.448320683s (48.277356ms per sample)\n",
      "Filling: 92.940214ms\n",
      "Current number of samples: 31\n",
      "\n",
      "Sample generation: 11.991165ms\n",
      "Multiplication: 1.453149143s (48.438304ms per sample)\n",
      "Filling: 91.780318ms\n",
      "Current number of samples: 61\n",
      "\n",
      "Sample generation: 11.524499ms\n",
      "Multiplication: 1.497683048s (49.922768ms per sample)\n",
      "Filling: 92.067482ms\n",
      "Current number of samples: 91\n",
      "\n",
      "Sample generation: 11.371499ms\n",
      "Multiplication: 1.446636042s (48.221201ms per sample)\n",
      "Filling: 90.131403ms\n",
      "Current number of samples: 121\n",
      "\n",
      "Sample generation: 12.370874ms\n",
      "Multiplication: 1.508168074s (50.272269ms per sample)\n",
      "Filling: 93.152487ms\n",
      "Current number of samples: 151\n",
      "\n",
      "Sample generation: 10.970089ms\n",
      "Multiplication: 1.478960892s (49.298696ms per sample)\n",
      "Filling: 90.049963ms\n",
      "Current number of samples: 181\n",
      "\n",
      "Sample generation: 12.663327ms\n",
      "Multiplication: 1.4649302s (48.831006ms per sample)\n",
      "Filling: 92.777387ms\n",
      "Current number of samples: 211\n",
      "\n",
      "Total samples: 953\n",
      "Sampling time: 13540ms\n",
      "\n",
      "Extra active samples: 232. Min samples: 953\n",
      "Update times: 133ms, 1722ms\n",
      "Active samples: 953\n",
      "\n",
      "Starting ID step\n",
      "ID calculations in 657.283069ms\n",
      "ID postprocessing in 489.627µs\n",
      "ID step in 658.680737ms\n",
      "ID updated in 65.220486ms\n",
      "\n",
      "Start LU step\n",
      "Batches computed in 959.668µs\n",
      "Active samples vs total samples: 953, 953\n",
      "LU step in 1244ms, with updates in 1597ms\n",
      "\n",
      "End level cycle. Summary:\n",
      "-------------------------\n",
      "Elapsed time: 18 s\n",
      "Sketch Points: 2748\n",
      "Residual Points: 45342\n",
      "Current Number of Samples: 953 of which 953 are active\n",
      "\n",
      "%%%%%%%%%%%%%%%%%%%%%%%%%%%%%%%%%%%%%%%%%%%%%%%%%\n",
      "\n",
      "Computing Indices...\n",
      "\n",
      "New 64 boxes, with 2748 active indices.\n",
      "Current Level: 2. Indices computed in 421.268µs\n",
      "\n",
      "\n",
      "Number of merged boxes: 56\n",
      "\n",
      "Active samples: 953\n",
      "\n",
      "Starting ID step\n",
      "ID calculations in 110.407602ms\n",
      "ID postprocessing in 131.159µs\n",
      "ID step in 110.634833ms\n",
      "ID updated in 19.607051ms\n",
      "\n",
      "Start LU step\n",
      "Batches computed in 221.971µs\n",
      "Active samples vs total samples: 953, 953\n",
      "LU step in 801ms, with updates in 726ms\n",
      "\n",
      "End level cycle. Summary:\n",
      "-------------------------\n",
      "Elapsed time: 1 s\n",
      "Sketch Points: 461\n",
      "Residual Points: 47629\n",
      "Current Number of Samples: 953 of which 953 are active\n",
      "\n",
      "-------------------------\n",
      "\n",
      "Reached lower level: 1\n",
      "Minimum samples: 525\n",
      "Tree cycle elapsed time: 67 s\n",
      "Extracting diagonal blocks with 953 active samples\n",
      "Extraction time: 0s\n",
      "\n",
      "Total elapsed time: 67.73214862s (51985ms for sampling, 15747ms for RSRS), with 953 active samples\n",
      "\n",
      "%%%%%%%%%%%%%%%%%%%%%%%%%%%%%%%%%%%%%%%%%%%%%%%%%\n",
      "\n",
      "GMRES converged in 2 iterations with relative residual +6.775366457684087E-10.\n",
      "LU: 3548\n",
      "ID: 2407\n",
      "Other: 32\n",
      "Update ID: 544\n",
      "Update LU: 8755\n",
      "Extraction: 389\n",
      "Total RSRS: 15675\n",
      "Total Sampling: 51985\n",
      "           \u001b[37m•\u001b[0m\u001b[37m•\u001b[0m\u001b[31m•\u001b[0m\u001b[31m•\u001b[0m\u001b[31m•\u001b[0m             \n",
      "       \u001b[37m•\u001b[0m\u001b[37m•\u001b[0m\u001b[37m•\u001b[0m\u001b[37m•\u001b[0m\u001b[37m•\u001b[0m\u001b[37m•\u001b[0m\u001b[31m•\u001b[0m\u001b[31m•\u001b[0m\u001b[31m•\u001b[0m\u001b[32m•\u001b[0m\u001b[32m•\u001b[0m\u001b[33m•\u001b[0m\u001b[36m•\u001b[0m         \n",
      "     \u001b[37m•\u001b[0m\u001b[37m•\u001b[0m\u001b[37m•\u001b[0m\u001b[37m•\u001b[0m\u001b[37m•\u001b[0m\u001b[37m•\u001b[0m\u001b[37m•\u001b[0m\u001b[37m•\u001b[0m\u001b[31m•\u001b[0m\u001b[31m•\u001b[0m\u001b[31m•\u001b[0m\u001b[32m•\u001b[0m\u001b[32m•\u001b[0m\u001b[36m•\u001b[0m\u001b[36m•\u001b[0m\u001b[36m•\u001b[0m\u001b[36m•\u001b[0m       \u001b[31m•\u001b[0m LU 5.24% (3548)\n",
      "    \u001b[37m•\u001b[0m\u001b[37m•\u001b[0m\u001b[37m•\u001b[0m\u001b[37m•\u001b[0m\u001b[37m•\u001b[0m\u001b[37m•\u001b[0m\u001b[37m•\u001b[0m\u001b[37m•\u001b[0m\u001b[37m•\u001b[0m\u001b[31m•\u001b[0m\u001b[31m•\u001b[0m\u001b[31m•\u001b[0m\u001b[32m•\u001b[0m\u001b[33m•\u001b[0m\u001b[36m•\u001b[0m\u001b[36m•\u001b[0m\u001b[36m•\u001b[0m\u001b[36m•\u001b[0m\u001b[36m•\u001b[0m      \n",
      "  \u001b[37m•\u001b[0m\u001b[37m•\u001b[0m\u001b[37m•\u001b[0m\u001b[37m•\u001b[0m\u001b[37m•\u001b[0m\u001b[37m•\u001b[0m\u001b[37m•\u001b[0m\u001b[37m•\u001b[0m\u001b[37m•\u001b[0m\u001b[37m•\u001b[0m\u001b[37m•\u001b[0m\u001b[31m•\u001b[0m\u001b[31m•\u001b[0m\u001b[32m•\u001b[0m\u001b[32m•\u001b[0m\u001b[36m•\u001b[0m\u001b[36m•\u001b[0m\u001b[36m•\u001b[0m\u001b[36m•\u001b[0m\u001b[36m•\u001b[0m\u001b[36m•\u001b[0m\u001b[36m•\u001b[0m\u001b[36m•\u001b[0m    \u001b[32m•\u001b[0m ID 3.56% (2407)\n",
      "  \u001b[37m•\u001b[0m\u001b[37m•\u001b[0m\u001b[37m•\u001b[0m\u001b[37m•\u001b[0m\u001b[37m•\u001b[0m\u001b[37m•\u001b[0m\u001b[37m•\u001b[0m\u001b[37m•\u001b[0m\u001b[37m•\u001b[0m\u001b[37m•\u001b[0m\u001b[37m•\u001b[0m\u001b[31m•\u001b[0m\u001b[31m•\u001b[0m\u001b[32m•\u001b[0m\u001b[36m•\u001b[0m\u001b[36m•\u001b[0m\u001b[36m•\u001b[0m\u001b[36m•\u001b[0m\u001b[36m•\u001b[0m\u001b[36m•\u001b[0m\u001b[36m•\u001b[0m\u001b[36m•\u001b[0m\u001b[36m•\u001b[0m    \n",
      " \u001b[37m•\u001b[0m\u001b[37m•\u001b[0m\u001b[37m•\u001b[0m\u001b[37m•\u001b[0m\u001b[37m•\u001b[0m\u001b[37m•\u001b[0m\u001b[37m•\u001b[0m\u001b[37m•\u001b[0m\u001b[37m•\u001b[0m\u001b[37m•\u001b[0m\u001b[37m•\u001b[0m\u001b[37m•\u001b[0m\u001b[31m•\u001b[0m\u001b[31m•\u001b[0m\u001b[33m•\u001b[0m\u001b[36m•\u001b[0m\u001b[36m•\u001b[0m\u001b[36m•\u001b[0m\u001b[36m•\u001b[0m\u001b[36m•\u001b[0m\u001b[36m•\u001b[0m\u001b[36m•\u001b[0m\u001b[36m•\u001b[0m\u001b[36m•\u001b[0m\u001b[36m•\u001b[0m   \u001b[34m•\u001b[0m Other 0.05% (32)\n",
      " \u001b[37m•\u001b[0m\u001b[37m•\u001b[0m\u001b[37m•\u001b[0m\u001b[37m•\u001b[0m\u001b[37m•\u001b[0m\u001b[37m•\u001b[0m\u001b[37m•\u001b[0m\u001b[37m•\u001b[0m\u001b[37m•\u001b[0m\u001b[37m•\u001b[0m\u001b[37m•\u001b[0m\u001b[37m•\u001b[0m\u001b[31m•\u001b[0m\u001b[32m•\u001b[0m\u001b[36m•\u001b[0m\u001b[36m•\u001b[0m\u001b[36m•\u001b[0m\u001b[36m•\u001b[0m\u001b[36m•\u001b[0m\u001b[36m•\u001b[0m\u001b[36m•\u001b[0m\u001b[36m•\u001b[0m\u001b[36m•\u001b[0m\u001b[36m•\u001b[0m\u001b[36m•\u001b[0m   \n",
      "\u001b[37m•\u001b[0m\u001b[37m•\u001b[0m\u001b[37m•\u001b[0m\u001b[37m•\u001b[0m\u001b[37m•\u001b[0m\u001b[37m•\u001b[0m\u001b[37m•\u001b[0m\u001b[37m•\u001b[0m\u001b[37m•\u001b[0m\u001b[37m•\u001b[0m\u001b[37m•\u001b[0m\u001b[37m•\u001b[0m\u001b[37m•\u001b[0m\u001b[31m•\u001b[0m\u001b[36m•\u001b[0m\u001b[36m•\u001b[0m\u001b[36m•\u001b[0m\u001b[36m•\u001b[0m\u001b[36m•\u001b[0m\u001b[36m•\u001b[0m\u001b[37m•\u001b[0m\u001b[37m•\u001b[0m\u001b[37m•\u001b[0m\u001b[37m•\u001b[0m\u001b[37m•\u001b[0m\u001b[37m•\u001b[0m\u001b[37m•\u001b[0m  \u001b[33m•\u001b[0m Update ID 0.80% (544)\n",
      "\u001b[37m•\u001b[0m\u001b[37m•\u001b[0m\u001b[37m•\u001b[0m\u001b[37m•\u001b[0m\u001b[37m•\u001b[0m\u001b[37m•\u001b[0m\u001b[37m•\u001b[0m\u001b[37m•\u001b[0m\u001b[37m•\u001b[0m\u001b[37m•\u001b[0m\u001b[37m•\u001b[0m\u001b[37m•\u001b[0m\u001b[37m•\u001b[0m\u001b[37m•\u001b[0m\u001b[37m•\u001b[0m\u001b[37m•\u001b[0m\u001b[37m•\u001b[0m\u001b[37m•\u001b[0m\u001b[37m•\u001b[0m\u001b[37m•\u001b[0m\u001b[37m•\u001b[0m\u001b[37m•\u001b[0m\u001b[37m•\u001b[0m\u001b[37m•\u001b[0m\u001b[37m•\u001b[0m\u001b[37m•\u001b[0m\u001b[37m•\u001b[0m  \n",
      "\u001b[37m•\u001b[0m\u001b[37m•\u001b[0m\u001b[37m•\u001b[0m\u001b[37m•\u001b[0m\u001b[37m•\u001b[0m\u001b[37m•\u001b[0m\u001b[37m•\u001b[0m\u001b[37m•\u001b[0m\u001b[37m•\u001b[0m\u001b[37m•\u001b[0m\u001b[37m•\u001b[0m\u001b[37m•\u001b[0m\u001b[37m•\u001b[0m\u001b[37m•\u001b[0m\u001b[37m•\u001b[0m\u001b[37m•\u001b[0m\u001b[37m•\u001b[0m\u001b[37m•\u001b[0m\u001b[37m•\u001b[0m\u001b[37m•\u001b[0m\u001b[37m•\u001b[0m\u001b[37m•\u001b[0m\u001b[37m•\u001b[0m\u001b[37m•\u001b[0m\u001b[37m•\u001b[0m\u001b[37m•\u001b[0m\u001b[37m•\u001b[0m  \u001b[36m•\u001b[0m Update LU 12.94% (8755)\n",
      " \u001b[37m•\u001b[0m\u001b[37m•\u001b[0m\u001b[37m•\u001b[0m\u001b[37m•\u001b[0m\u001b[37m•\u001b[0m\u001b[37m•\u001b[0m\u001b[37m•\u001b[0m\u001b[37m•\u001b[0m\u001b[37m•\u001b[0m\u001b[37m•\u001b[0m\u001b[37m•\u001b[0m\u001b[37m•\u001b[0m\u001b[37m•\u001b[0m\u001b[37m•\u001b[0m\u001b[37m•\u001b[0m\u001b[37m•\u001b[0m\u001b[37m•\u001b[0m\u001b[37m•\u001b[0m\u001b[37m•\u001b[0m\u001b[37m•\u001b[0m\u001b[37m•\u001b[0m\u001b[37m•\u001b[0m\u001b[37m•\u001b[0m\u001b[37m•\u001b[0m\u001b[37m•\u001b[0m   \n",
      " \u001b[37m•\u001b[0m\u001b[37m•\u001b[0m\u001b[37m•\u001b[0m\u001b[37m•\u001b[0m\u001b[37m•\u001b[0m\u001b[37m•\u001b[0m\u001b[37m•\u001b[0m\u001b[37m•\u001b[0m\u001b[37m•\u001b[0m\u001b[37m•\u001b[0m\u001b[37m•\u001b[0m\u001b[37m•\u001b[0m\u001b[37m•\u001b[0m\u001b[37m•\u001b[0m\u001b[37m•\u001b[0m\u001b[37m•\u001b[0m\u001b[37m•\u001b[0m\u001b[37m•\u001b[0m\u001b[37m•\u001b[0m\u001b[37m•\u001b[0m\u001b[37m•\u001b[0m\u001b[37m•\u001b[0m\u001b[37m•\u001b[0m\u001b[37m•\u001b[0m\u001b[37m•\u001b[0m   \u001b[37m•\u001b[0m Sampling 76.83% (51985)\n",
      "  \u001b[37m•\u001b[0m\u001b[37m•\u001b[0m\u001b[37m•\u001b[0m\u001b[37m•\u001b[0m\u001b[37m•\u001b[0m\u001b[37m•\u001b[0m\u001b[37m•\u001b[0m\u001b[37m•\u001b[0m\u001b[37m•\u001b[0m\u001b[37m•\u001b[0m\u001b[37m•\u001b[0m\u001b[37m•\u001b[0m\u001b[37m•\u001b[0m\u001b[37m•\u001b[0m\u001b[37m•\u001b[0m\u001b[37m•\u001b[0m\u001b[37m•\u001b[0m\u001b[37m•\u001b[0m\u001b[37m•\u001b[0m\u001b[37m•\u001b[0m\u001b[37m•\u001b[0m\u001b[37m•\u001b[0m\u001b[37m•\u001b[0m    \n",
      "  \u001b[37m•\u001b[0m\u001b[37m•\u001b[0m\u001b[37m•\u001b[0m\u001b[37m•\u001b[0m\u001b[37m•\u001b[0m\u001b[37m•\u001b[0m\u001b[37m•\u001b[0m\u001b[37m•\u001b[0m\u001b[37m•\u001b[0m\u001b[37m•\u001b[0m\u001b[37m•\u001b[0m\u001b[37m•\u001b[0m\u001b[37m•\u001b[0m\u001b[37m•\u001b[0m\u001b[37m•\u001b[0m\u001b[37m•\u001b[0m\u001b[37m•\u001b[0m\u001b[37m•\u001b[0m\u001b[37m•\u001b[0m\u001b[37m•\u001b[0m\u001b[37m•\u001b[0m\u001b[37m•\u001b[0m\u001b[37m•\u001b[0m    \u001b[38;2;128;128;128m•\u001b[0m Extraction Sampling 0.00% (0)\n",
      "    \u001b[37m•\u001b[0m\u001b[37m•\u001b[0m\u001b[37m•\u001b[0m\u001b[37m•\u001b[0m\u001b[37m•\u001b[0m\u001b[37m•\u001b[0m\u001b[37m•\u001b[0m\u001b[37m•\u001b[0m\u001b[37m•\u001b[0m\u001b[37m•\u001b[0m\u001b[37m•\u001b[0m\u001b[37m•\u001b[0m\u001b[37m•\u001b[0m\u001b[37m•\u001b[0m\u001b[37m•\u001b[0m\u001b[37m•\u001b[0m\u001b[37m•\u001b[0m\u001b[37m•\u001b[0m\u001b[37m•\u001b[0m      \n",
      "     \u001b[37m•\u001b[0m\u001b[37m•\u001b[0m\u001b[37m•\u001b[0m\u001b[37m•\u001b[0m\u001b[37m•\u001b[0m\u001b[37m•\u001b[0m\u001b[37m•\u001b[0m\u001b[37m•\u001b[0m\u001b[37m•\u001b[0m\u001b[37m•\u001b[0m\u001b[37m•\u001b[0m\u001b[37m•\u001b[0m\u001b[37m•\u001b[0m\u001b[37m•\u001b[0m\u001b[37m•\u001b[0m\u001b[37m•\u001b[0m\u001b[37m•\u001b[0m       \u001b[35m•\u001b[0m Extraction 0.57% (389)\n",
      "       \u001b[37m•\u001b[0m\u001b[37m•\u001b[0m\u001b[37m•\u001b[0m\u001b[37m•\u001b[0m\u001b[37m•\u001b[0m\u001b[37m•\u001b[0m\u001b[37m•\u001b[0m\u001b[37m•\u001b[0m\u001b[37m•\u001b[0m\u001b[37m•\u001b[0m\u001b[37m•\u001b[0m\u001b[37m•\u001b[0m\u001b[37m•\u001b[0m         \n",
      "           \u001b[37m•\u001b[0m\u001b[37m•\u001b[0m\u001b[37m•\u001b[0m\u001b[37m•\u001b[0m\u001b[37m•\u001b[0m             \n",
      "Test: 48090 points, tol:0.000001\n",
      "%%%%%%%%%%%%%%%%%%%%%%%%%%%%%%%%%%%%%%%%%%%%%%%%%\n",
      "\n",
      "Computing Indices...\n",
      "\n",
      "New 7330 boxes, and active indices: 48090\n",
      "Current Level: 5. Indices computed in 7.927438ms\n",
      "\n",
      "\n",
      "Number of merged boxes: 0\n",
      "\n",
      "Sampling step. Sampling new 420 vectors\n",
      "Sample generation: 323.352µs\n",
      "Multiplication: 41.975684ms (1.399189ms per sample)\n",
      "Filling: 114.494153ms\n",
      "Current number of samples: 1\n",
      "\n",
      "Sample generation: 12.324286ms\n",
      "Multiplication: 1.446821272s (48.227375ms per sample)\n",
      "Filling: 92.506465ms\n",
      "Current number of samples: 31\n",
      "\n",
      "Sample generation: 11.523461ms\n",
      "Multiplication: 1.416840983s (47.228032ms per sample)\n",
      "Filling: 91.449022ms\n",
      "Current number of samples: 61\n",
      "\n",
      "Sample generation: 13.504391ms\n",
      "Multiplication: 1.50503309s (50.167769ms per sample)\n",
      "Filling: 94.373632ms\n",
      "Current number of samples: 91\n",
      "\n",
      "Sample generation: 12.958197ms\n",
      "Multiplication: 1.516605835s (50.553527ms per sample)\n",
      "Filling: 93.782478ms\n",
      "Current number of samples: 121\n",
      "\n",
      "Sample generation: 13.06195ms\n",
      "Multiplication: 1.529833714s (50.994457ms per sample)\n",
      "Filling: 94.212118ms\n",
      "Current number of samples: 151\n",
      "\n",
      "Sample generation: 12.943211ms\n",
      "Multiplication: 1.476749365s (49.224978ms per sample)\n",
      "Filling: 94.156365ms\n",
      "Current number of samples: 181\n",
      "\n",
      "Sample generation: 12.374507ms\n",
      "Multiplication: 1.473604579s (49.120152ms per sample)\n",
      "Filling: 93.08678ms\n",
      "Current number of samples: 211\n",
      "\n",
      "Sample generation: 11.788938ms\n",
      "Multiplication: 1.481360988s (49.378699ms per sample)\n",
      "Filling: 91.035783ms\n",
      "Current number of samples: 241\n",
      "\n",
      "Sample generation: 12.398496ms\n",
      "Multiplication: 1.476300898s (49.210029ms per sample)\n",
      "Filling: 91.882051ms\n",
      "Current number of samples: 271\n",
      "\n",
      "Sample generation: 12.646108ms\n",
      "Multiplication: 1.484824502s (49.49415ms per sample)\n",
      "Filling: 93.616389ms\n",
      "Current number of samples: 301\n",
      "\n",
      "Sample generation: 12.081877ms\n",
      "Multiplication: 1.438000741s (47.933358ms per sample)\n",
      "Filling: 90.007378ms\n",
      "Current number of samples: 331\n",
      "\n",
      "Sample generation: 12.452423ms\n",
      "Multiplication: 1.480526107s (49.35087ms per sample)\n",
      "Filling: 91.654054ms\n",
      "Current number of samples: 361\n",
      "\n",
      "Sample generation: 11.93571ms\n",
      "Multiplication: 1.437351365s (47.911712ms per sample)\n",
      "Filling: 89.935477ms\n",
      "Current number of samples: 391\n",
      "\n",
      "Total samples: 420\n",
      "Sampling time: 22193ms\n",
      "\n",
      "Active samples: 284\n",
      "\n",
      "Starting ID step\n",
      "ID calculations in 137.280589ms\n",
      "ID postprocessing in 302.422µs\n",
      "ID step in 142.432968ms\n",
      "ID updated in 3.77436ms\n",
      "\n",
      "Start LU step\n",
      "Batches computed in 206.201µs\n",
      "Active samples vs total samples: 284, 420\n",
      "LU step in 13ms, with updates in 27ms\n",
      "\n",
      "End level cycle. Summary:\n",
      "-------------------------\n",
      "Elapsed time: 22 s\n",
      "Sketch Points: 48015\n",
      "Residual Points: 75\n",
      "Current Number of Samples: 420 of which 284 are active\n",
      "\n",
      "%%%%%%%%%%%%%%%%%%%%%%%%%%%%%%%%%%%%%%%%%%%%%%%%%\n",
      "\n",
      "Computing Indices...\n",
      "\n",
      "New 3312 boxes, with 48015 active indices.\n",
      "Current Level: 4. Indices computed in 12.48017ms\n",
      "\n",
      "\n",
      "Number of merged boxes: 68\n",
      "\n",
      "Sampling step. Sampling new 457 vectors\n",
      "Sample generation: 327.4µs\n",
      "Multiplication: 44.247156ms (1.474905ms per sample)\n",
      "Filling: 2.793011ms\n",
      "Current number of samples: 1\n",
      "\n",
      "Sample generation: 13.453536ms\n",
      "Multiplication: 1.184482325s (39.482744ms per sample)\n",
      "Filling: 94.458185ms\n",
      "Current number of samples: 31\n",
      "\n",
      "Sample generation: 12.02793ms\n",
      "Multiplication: 1.173195029s (39.1065ms per sample)\n",
      "Filling: 91.525845ms\n",
      "Current number of samples: 61\n",
      "\n",
      "Sample generation: 13.576085ms\n",
      "Multiplication: 1.210000129s (40.333337ms per sample)\n",
      "Filling: 95.875427ms\n",
      "Current number of samples: 91\n",
      "\n",
      "Sample generation: 12.853157ms\n",
      "Multiplication: 1.225970858s (40.865695ms per sample)\n",
      "Filling: 94.326593ms\n",
      "Current number of samples: 121\n",
      "\n",
      "Sample generation: 14.004238ms\n",
      "Multiplication: 1.188503385s (39.616779ms per sample)\n",
      "Filling: 95.812582ms\n",
      "Current number of samples: 151\n",
      "\n",
      "Sample generation: 12.66867ms\n",
      "Multiplication: 1.187013144s (39.567104ms per sample)\n",
      "Filling: 92.284844ms\n",
      "Current number of samples: 181\n",
      "\n",
      "Sample generation: 13.6307ms\n",
      "Multiplication: 1.206365184s (40.212172ms per sample)\n",
      "Filling: 94.786004ms\n",
      "Current number of samples: 211\n",
      "\n",
      "Sample generation: 13.012799ms\n",
      "Multiplication: 1.18018567s (39.339522ms per sample)\n",
      "Filling: 93.944385ms\n",
      "Current number of samples: 241\n",
      "\n",
      "Sample generation: 13.023313ms\n",
      "Multiplication: 1.181643665s (39.388122ms per sample)\n",
      "Filling: 93.850129ms\n",
      "Current number of samples: 271\n",
      "\n",
      "Sample generation: 13.272871ms\n",
      "Multiplication: 1.207764449s (40.258814ms per sample)\n",
      "Filling: 93.127221ms\n",
      "Current number of samples: 301\n",
      "\n",
      "Sample generation: 12.617242ms\n",
      "Multiplication: 1.190608782s (39.686959ms per sample)\n",
      "Filling: 92.828947ms\n",
      "Current number of samples: 331\n",
      "\n",
      "Sample generation: 12.057589ms\n",
      "Multiplication: 1.150799999s (38.359999ms per sample)\n",
      "Filling: 90.89595ms\n",
      "Current number of samples: 361\n",
      "\n",
      "Sample generation: 13.041342ms\n",
      "Multiplication: 1.183950379s (39.465012ms per sample)\n",
      "Filling: 94.238412ms\n",
      "Current number of samples: 391\n",
      "\n",
      "Sample generation: 13.043057ms\n",
      "Multiplication: 1.211644995s (40.388166ms per sample)\n",
      "Filling: 94.086304ms\n",
      "Current number of samples: 421\n",
      "\n",
      "Sample generation: 12.898426ms\n",
      "Multiplication: 1.228282431s (40.942747ms per sample)\n",
      "Filling: 94.540765ms\n",
      "Current number of samples: 451\n",
      "\n",
      "Total samples: 877\n",
      "Sampling time: 20739ms\n",
      "\n",
      "Extra active samples: 593. Min samples: 877\n",
      "Update times: 8ms, 85ms\n",
      "Active samples: 877\n",
      "\n",
      "Starting ID step\n",
      "ID calculations in 2.367353118s\n",
      "ID postprocessing in 1.527483ms\n",
      "ID step in 2.372165425s\n",
      "ID updated in 250.025746ms\n",
      "\n",
      "Start LU step\n",
      "Batches computed in 2.982079ms\n",
      "Active samples vs total samples: 877, 877\n",
      "LU step in 1954ms, with updates in 3345ms\n",
      "\n",
      "End level cycle. Summary:\n",
      "-------------------------\n",
      "Elapsed time: 28 s\n",
      "Sketch Points: 25138\n",
      "Residual Points: 22952\n",
      "Current Number of Samples: 877 of which 877 are active\n",
      "\n",
      "%%%%%%%%%%%%%%%%%%%%%%%%%%%%%%%%%%%%%%%%%%%%%%%%%\n",
      "\n",
      "Computing Indices...\n",
      "\n",
      "New 512 boxes, with 25138 active indices.\n",
      "Current Level: 3. Indices computed in 3.066659ms\n",
      "\n",
      "\n",
      "Number of merged boxes: 248\n",
      "\n",
      "Sampling step. Sampling new 948 vectors\n",
      "Sample generation: 312.953µs\n",
      "Multiplication: 36.511503ms (1.21705ms per sample)\n",
      "Filling: 13.705834ms\n",
      "Current number of samples: 1\n",
      "\n",
      "Sample generation: 12.76551ms\n",
      "Multiplication: 1.192629617s (39.75432ms per sample)\n",
      "Filling: 441.56569ms\n",
      "Current number of samples: 31\n",
      "\n",
      "Sample generation: 12.14872ms\n",
      "Multiplication: 1.177565149s (39.252171ms per sample)\n",
      "Filling: 440.279134ms\n",
      "Current number of samples: 61\n",
      "\n",
      "Sample generation: 12.155205ms\n",
      "Multiplication: 1.17083771s (39.027923ms per sample)\n",
      "Filling: 446.055862ms\n",
      "Current number of samples: 91\n",
      "\n",
      "Sample generation: 12.95562ms\n",
      "Multiplication: 1.203323841s (40.110794ms per sample)\n",
      "Filling: 463.369549ms\n",
      "Current number of samples: 121\n",
      "\n",
      "Sample generation: 12.458235ms\n",
      "Multiplication: 1.165451013s (38.848367ms per sample)\n",
      "Filling: 456.343831ms\n",
      "Current number of samples: 151\n",
      "\n",
      "Sample generation: 12.280273ms\n",
      "Multiplication: 1.17476207s (39.158735ms per sample)\n",
      "Filling: 458.062823ms\n",
      "Current number of samples: 181\n",
      "\n",
      "Sample generation: 12.742228ms\n",
      "Multiplication: 1.163810022s (38.793667ms per sample)\n",
      "Filling: 467.392472ms\n",
      "Current number of samples: 211\n",
      "\n",
      "Sample generation: 12.773266ms\n",
      "Multiplication: 1.186086284s (39.536209ms per sample)\n",
      "Filling: 470.322733ms\n",
      "Current number of samples: 241\n",
      "\n",
      "Sample generation: 13.724827ms\n",
      "Multiplication: 1.229540967s (40.984698ms per sample)\n",
      "Filling: 488.595107ms\n",
      "Current number of samples: 271\n",
      "\n",
      "Sample generation: 13.043689ms\n",
      "Multiplication: 1.221098647s (40.703288ms per sample)\n",
      "Filling: 475.613663ms\n",
      "Current number of samples: 301\n",
      "\n",
      "Sample generation: 13.50288ms\n",
      "Multiplication: 1.195010964s (39.833698ms per sample)\n",
      "Filling: 484.237674ms\n",
      "Current number of samples: 331\n",
      "\n",
      "Sample generation: 12.34829ms\n",
      "Multiplication: 1.159339893s (38.644663ms per sample)\n",
      "Filling: 473.152339ms\n",
      "Current number of samples: 361\n",
      "\n",
      "Sample generation: 13.081419ms\n",
      "Multiplication: 1.198517372s (39.950579ms per sample)\n",
      "Filling: 480.633305ms\n",
      "Current number of samples: 391\n",
      "\n",
      "Sample generation: 12.341291ms\n",
      "Multiplication: 1.157162907s (38.572096ms per sample)\n",
      "Filling: 473.337797ms\n",
      "Current number of samples: 421\n",
      "\n",
      "Sample generation: 11.572701ms\n",
      "Multiplication: 1.163294558s (38.776485ms per sample)\n",
      "Filling: 463.179498ms\n",
      "Current number of samples: 451\n",
      "\n",
      "Sample generation: 11.420412ms\n",
      "Multiplication: 1.153198025s (38.439934ms per sample)\n",
      "Filling: 450.219364ms\n",
      "Current number of samples: 481\n",
      "\n",
      "Sample generation: 11.260863ms\n",
      "Multiplication: 1.164410263s (38.813675ms per sample)\n",
      "Filling: 452.968566ms\n",
      "Current number of samples: 511\n",
      "\n",
      "Sample generation: 13.518567ms\n",
      "Multiplication: 1.196165155s (39.872171ms per sample)\n",
      "Filling: 470.816374ms\n",
      "Current number of samples: 541\n",
      "\n",
      "Sample generation: 13.374663ms\n",
      "Multiplication: 1.189086816s (39.636227ms per sample)\n",
      "Filling: 469.178913ms\n",
      "Current number of samples: 571\n",
      "\n",
      "Sample generation: 11.985306ms\n",
      "Multiplication: 1.163438648s (38.781288ms per sample)\n",
      "Filling: 455.964469ms\n",
      "Current number of samples: 601\n",
      "\n",
      "Sample generation: 12.083131ms\n",
      "Multiplication: 1.1744872s (39.149573ms per sample)\n",
      "Filling: 454.713035ms\n",
      "Current number of samples: 631\n",
      "\n",
      "Sample generation: 11.942023ms\n",
      "Multiplication: 1.172168158s (39.072271ms per sample)\n",
      "Filling: 454.035742ms\n",
      "Current number of samples: 661\n",
      "\n",
      "Sample generation: 12.551488ms\n",
      "Multiplication: 1.182350671s (39.411689ms per sample)\n",
      "Filling: 457.349076ms\n",
      "Current number of samples: 691\n",
      "\n",
      "Sample generation: 13.283552ms\n",
      "Multiplication: 1.232610838s (41.087027ms per sample)\n",
      "Filling: 461.016281ms\n",
      "Current number of samples: 721\n",
      "\n",
      "Sample generation: 12.795185ms\n",
      "Multiplication: 1.212022226s (40.40074ms per sample)\n",
      "Filling: 458.271305ms\n",
      "Current number of samples: 751\n",
      "\n",
      "Sample generation: 10.692415ms\n",
      "Multiplication: 1.15709927s (38.569975ms per sample)\n",
      "Filling: 434.000755ms\n",
      "Current number of samples: 781\n",
      "\n",
      "Sample generation: 11.690358ms\n",
      "Multiplication: 1.187041918s (39.568063ms per sample)\n",
      "Filling: 439.099484ms\n",
      "Current number of samples: 811\n",
      "\n",
      "Sample generation: 12.157249ms\n",
      "Multiplication: 1.184777137s (39.492571ms per sample)\n",
      "Filling: 432.84773ms\n",
      "Current number of samples: 841\n",
      "\n",
      "Sample generation: 12.082274ms\n",
      "Multiplication: 1.194231385s (39.807712ms per sample)\n",
      "Filling: 430.50758ms\n",
      "Current number of samples: 871\n",
      "\n",
      "Sample generation: 12.157116ms\n",
      "Multiplication: 1.18895812s (39.631937ms per sample)\n",
      "Filling: 427.978253ms\n",
      "Current number of samples: 901\n",
      "\n",
      "Sample generation: 13.711501ms\n",
      "Multiplication: 1.217127365s (40.570912ms per sample)\n",
      "Filling: 436.17312ms\n",
      "Current number of samples: 931\n",
      "\n",
      "Total samples: 1825\n",
      "Sampling time: 54055ms\n",
      "\n",
      "Extra active samples: 948. Min samples: 1825\n",
      "Update times: 302ms, 4365ms\n",
      "Active samples: 1825\n",
      "\n",
      "Starting ID step\n",
      "ID calculations in 3.797440903s\n",
      "ID postprocessing in 564.749µs\n",
      "ID step in 3.799095668s\n",
      "ID updated in 276.110875ms\n",
      "\n",
      "Start LU step\n",
      "Batches computed in 1.128357ms\n",
      "Active samples vs total samples: 1825, 1825\n",
      "LU step in 5414ms, with updates in 6673ms\n",
      "\n",
      "End level cycle. Summary:\n",
      "-------------------------\n",
      "Elapsed time: 74 s\n",
      "Sketch Points: 5996\n",
      "Residual Points: 42094\n",
      "Current Number of Samples: 1825 of which 1825 are active\n",
      "\n",
      "%%%%%%%%%%%%%%%%%%%%%%%%%%%%%%%%%%%%%%%%%%%%%%%%%\n",
      "\n",
      "Computing Indices...\n",
      "\n",
      "New 64 boxes, with 5996 active indices.\n",
      "Current Level: 2. Indices computed in 553.809µs\n",
      "\n",
      "\n",
      "Number of merged boxes: 56\n",
      "\n",
      "Active samples: 1825\n",
      "\n",
      "Starting ID step\n",
      "ID calculations in 867.418865ms\n",
      "ID postprocessing in 139.935µs\n",
      "ID step in 867.72765ms\n",
      "ID updated in 83.951096ms\n",
      "\n",
      "Start LU step\n",
      "Batches computed in 264.752µs\n",
      "Active samples vs total samples: 1825, 1825\n",
      "LU step in 4597ms, with updates in 3122ms\n",
      "\n",
      "End level cycle. Summary:\n",
      "-------------------------\n",
      "Elapsed time: 8 s\n",
      "Sketch Points: 1027\n",
      "Residual Points: 47063\n",
      "Current Number of Samples: 1825 of which 1825 are active\n",
      "\n",
      "-------------------------\n",
      "\n",
      "Reached lower level: 1\n",
      "Minimum samples: 1187\n",
      "Tree cycle elapsed time: 134 s\n",
      "Extracting diagonal blocks with 1825 active samples\n",
      "Extraction time: 0s\n",
      "\n",
      "Total elapsed time: 135.38100505s (96987ms for sampling, 38394ms for RSRS), with 1825 active samples\n",
      "\n",
      "%%%%%%%%%%%%%%%%%%%%%%%%%%%%%%%%%%%%%%%%%%%%%%%%%\n",
      "\n",
      "GMRES converged in 1 iterations with relative residual +2.8201457464711855E-7.\n",
      "LU: 11978\n",
      "ID: 7180\n",
      "Other: 25\n",
      "Update ID: 922\n",
      "Update LU: 17617\n",
      "Extraction: 601\n",
      "Total RSRS: 38323\n",
      "Total Sampling: 96987\n",
      "           \u001b[37m•\u001b[0m\u001b[37m•\u001b[0m\u001b[31m•\u001b[0m\u001b[31m•\u001b[0m\u001b[31m•\u001b[0m             \n",
      "       \u001b[37m•\u001b[0m\u001b[37m•\u001b[0m\u001b[37m•\u001b[0m\u001b[37m•\u001b[0m\u001b[37m•\u001b[0m\u001b[37m•\u001b[0m\u001b[31m•\u001b[0m\u001b[31m•\u001b[0m\u001b[31m•\u001b[0m\u001b[31m•\u001b[0m\u001b[31m•\u001b[0m\u001b[32m•\u001b[0m\u001b[32m•\u001b[0m         \n",
      "     \u001b[37m•\u001b[0m\u001b[37m•\u001b[0m\u001b[37m•\u001b[0m\u001b[37m•\u001b[0m\u001b[37m•\u001b[0m\u001b[37m•\u001b[0m\u001b[37m•\u001b[0m\u001b[37m•\u001b[0m\u001b[31m•\u001b[0m\u001b[31m•\u001b[0m\u001b[31m•\u001b[0m\u001b[31m•\u001b[0m\u001b[31m•\u001b[0m\u001b[32m•\u001b[0m\u001b[32m•\u001b[0m\u001b[32m•\u001b[0m\u001b[32m•\u001b[0m       \u001b[31m•\u001b[0m LU 8.85% (11978)\n",
      "    \u001b[37m•\u001b[0m\u001b[37m•\u001b[0m\u001b[37m•\u001b[0m\u001b[37m•\u001b[0m\u001b[37m•\u001b[0m\u001b[37m•\u001b[0m\u001b[37m•\u001b[0m\u001b[37m•\u001b[0m\u001b[37m•\u001b[0m\u001b[31m•\u001b[0m\u001b[31m•\u001b[0m\u001b[31m•\u001b[0m\u001b[31m•\u001b[0m\u001b[32m•\u001b[0m\u001b[32m•\u001b[0m\u001b[32m•\u001b[0m\u001b[32m•\u001b[0m\u001b[33m•\u001b[0m\u001b[36m•\u001b[0m      \n",
      "  \u001b[37m•\u001b[0m\u001b[37m•\u001b[0m\u001b[37m•\u001b[0m\u001b[37m•\u001b[0m\u001b[37m•\u001b[0m\u001b[37m•\u001b[0m\u001b[37m•\u001b[0m\u001b[37m•\u001b[0m\u001b[37m•\u001b[0m\u001b[37m•\u001b[0m\u001b[37m•\u001b[0m\u001b[31m•\u001b[0m\u001b[31m•\u001b[0m\u001b[31m•\u001b[0m\u001b[31m•\u001b[0m\u001b[32m•\u001b[0m\u001b[32m•\u001b[0m\u001b[32m•\u001b[0m\u001b[36m•\u001b[0m\u001b[36m•\u001b[0m\u001b[36m•\u001b[0m\u001b[36m•\u001b[0m\u001b[36m•\u001b[0m    \u001b[32m•\u001b[0m ID 5.31% (7180)\n",
      "  \u001b[37m•\u001b[0m\u001b[37m•\u001b[0m\u001b[37m•\u001b[0m\u001b[37m•\u001b[0m\u001b[37m•\u001b[0m\u001b[37m•\u001b[0m\u001b[37m•\u001b[0m\u001b[37m•\u001b[0m\u001b[37m•\u001b[0m\u001b[37m•\u001b[0m\u001b[37m•\u001b[0m\u001b[31m•\u001b[0m\u001b[31m•\u001b[0m\u001b[31m•\u001b[0m\u001b[32m•\u001b[0m\u001b[32m•\u001b[0m\u001b[33m•\u001b[0m\u001b[36m•\u001b[0m\u001b[36m•\u001b[0m\u001b[36m•\u001b[0m\u001b[36m•\u001b[0m\u001b[36m•\u001b[0m\u001b[36m•\u001b[0m    \n",
      " \u001b[37m•\u001b[0m\u001b[37m•\u001b[0m\u001b[37m•\u001b[0m\u001b[37m•\u001b[0m\u001b[37m•\u001b[0m\u001b[37m•\u001b[0m\u001b[37m•\u001b[0m\u001b[37m•\u001b[0m\u001b[37m•\u001b[0m\u001b[37m•\u001b[0m\u001b[37m•\u001b[0m\u001b[37m•\u001b[0m\u001b[31m•\u001b[0m\u001b[31m•\u001b[0m\u001b[32m•\u001b[0m\u001b[32m•\u001b[0m\u001b[33m•\u001b[0m\u001b[36m•\u001b[0m\u001b[36m•\u001b[0m\u001b[36m•\u001b[0m\u001b[36m•\u001b[0m\u001b[36m•\u001b[0m\u001b[36m•\u001b[0m\u001b[36m•\u001b[0m\u001b[36m•\u001b[0m   \u001b[34m•\u001b[0m Other 0.02% (25)\n",
      " \u001b[37m•\u001b[0m\u001b[37m•\u001b[0m\u001b[37m•\u001b[0m\u001b[37m•\u001b[0m\u001b[37m•\u001b[0m\u001b[37m•\u001b[0m\u001b[37m•\u001b[0m\u001b[37m•\u001b[0m\u001b[37m•\u001b[0m\u001b[37m•\u001b[0m\u001b[37m•\u001b[0m\u001b[37m•\u001b[0m\u001b[31m•\u001b[0m\u001b[31m•\u001b[0m\u001b[32m•\u001b[0m\u001b[36m•\u001b[0m\u001b[36m•\u001b[0m\u001b[36m•\u001b[0m\u001b[36m•\u001b[0m\u001b[36m•\u001b[0m\u001b[36m•\u001b[0m\u001b[36m•\u001b[0m\u001b[36m•\u001b[0m\u001b[36m•\u001b[0m\u001b[36m•\u001b[0m   \n",
      "\u001b[37m•\u001b[0m\u001b[37m•\u001b[0m\u001b[37m•\u001b[0m\u001b[37m•\u001b[0m\u001b[37m•\u001b[0m\u001b[37m•\u001b[0m\u001b[37m•\u001b[0m\u001b[37m•\u001b[0m\u001b[37m•\u001b[0m\u001b[37m•\u001b[0m\u001b[37m•\u001b[0m\u001b[37m•\u001b[0m\u001b[37m•\u001b[0m\u001b[31m•\u001b[0m\u001b[32m•\u001b[0m\u001b[36m•\u001b[0m\u001b[36m•\u001b[0m\u001b[36m•\u001b[0m\u001b[36m•\u001b[0m\u001b[36m•\u001b[0m\u001b[36m•\u001b[0m\u001b[36m•\u001b[0m\u001b[36m•\u001b[0m\u001b[36m•\u001b[0m\u001b[36m•\u001b[0m\u001b[36m•\u001b[0m\u001b[36m•\u001b[0m  \u001b[33m•\u001b[0m Update ID 0.68% (922)\n",
      "\u001b[37m•\u001b[0m\u001b[37m•\u001b[0m\u001b[37m•\u001b[0m\u001b[37m•\u001b[0m\u001b[37m•\u001b[0m\u001b[37m•\u001b[0m\u001b[37m•\u001b[0m\u001b[37m•\u001b[0m\u001b[37m•\u001b[0m\u001b[37m•\u001b[0m\u001b[37m•\u001b[0m\u001b[37m•\u001b[0m\u001b[37m•\u001b[0m\u001b[37m•\u001b[0m\u001b[36m•\u001b[0m\u001b[36m•\u001b[0m\u001b[36m•\u001b[0m\u001b[36m•\u001b[0m\u001b[36m•\u001b[0m\u001b[36m•\u001b[0m\u001b[36m•\u001b[0m\u001b[36m•\u001b[0m\u001b[36m•\u001b[0m\u001b[36m•\u001b[0m\u001b[36m•\u001b[0m\u001b[36m•\u001b[0m\u001b[36m•\u001b[0m  \n",
      "\u001b[37m•\u001b[0m\u001b[37m•\u001b[0m\u001b[37m•\u001b[0m\u001b[37m•\u001b[0m\u001b[37m•\u001b[0m\u001b[37m•\u001b[0m\u001b[37m•\u001b[0m\u001b[37m•\u001b[0m\u001b[37m•\u001b[0m\u001b[37m•\u001b[0m\u001b[37m•\u001b[0m\u001b[37m•\u001b[0m\u001b[37m•\u001b[0m\u001b[37m•\u001b[0m\u001b[37m•\u001b[0m\u001b[37m•\u001b[0m\u001b[37m•\u001b[0m\u001b[37m•\u001b[0m\u001b[37m•\u001b[0m\u001b[36m•\u001b[0m\u001b[36m•\u001b[0m\u001b[36m•\u001b[0m\u001b[36m•\u001b[0m\u001b[36m•\u001b[0m\u001b[36m•\u001b[0m\u001b[36m•\u001b[0m\u001b[36m•\u001b[0m  \u001b[36m•\u001b[0m Update LU 13.02% (17617)\n",
      " \u001b[37m•\u001b[0m\u001b[37m•\u001b[0m\u001b[37m•\u001b[0m\u001b[37m•\u001b[0m\u001b[37m•\u001b[0m\u001b[37m•\u001b[0m\u001b[37m•\u001b[0m\u001b[37m•\u001b[0m\u001b[37m•\u001b[0m\u001b[37m•\u001b[0m\u001b[37m•\u001b[0m\u001b[37m•\u001b[0m\u001b[37m•\u001b[0m\u001b[37m•\u001b[0m\u001b[37m•\u001b[0m\u001b[37m•\u001b[0m\u001b[37m•\u001b[0m\u001b[37m•\u001b[0m\u001b[37m•\u001b[0m\u001b[37m•\u001b[0m\u001b[37m•\u001b[0m\u001b[37m•\u001b[0m\u001b[37m•\u001b[0m\u001b[36m•\u001b[0m\u001b[36m•\u001b[0m   \n",
      " \u001b[37m•\u001b[0m\u001b[37m•\u001b[0m\u001b[37m•\u001b[0m\u001b[37m•\u001b[0m\u001b[37m•\u001b[0m\u001b[37m•\u001b[0m\u001b[37m•\u001b[0m\u001b[37m•\u001b[0m\u001b[37m•\u001b[0m\u001b[37m•\u001b[0m\u001b[37m•\u001b[0m\u001b[37m•\u001b[0m\u001b[37m•\u001b[0m\u001b[37m•\u001b[0m\u001b[37m•\u001b[0m\u001b[37m•\u001b[0m\u001b[37m•\u001b[0m\u001b[37m•\u001b[0m\u001b[37m•\u001b[0m\u001b[37m•\u001b[0m\u001b[37m•\u001b[0m\u001b[37m•\u001b[0m\u001b[37m•\u001b[0m\u001b[37m•\u001b[0m\u001b[37m•\u001b[0m   \u001b[37m•\u001b[0m Sampling 71.68% (96987)\n",
      "  \u001b[37m•\u001b[0m\u001b[37m•\u001b[0m\u001b[37m•\u001b[0m\u001b[37m•\u001b[0m\u001b[37m•\u001b[0m\u001b[37m•\u001b[0m\u001b[37m•\u001b[0m\u001b[37m•\u001b[0m\u001b[37m•\u001b[0m\u001b[37m•\u001b[0m\u001b[37m•\u001b[0m\u001b[37m•\u001b[0m\u001b[37m•\u001b[0m\u001b[37m•\u001b[0m\u001b[37m•\u001b[0m\u001b[37m•\u001b[0m\u001b[37m•\u001b[0m\u001b[37m•\u001b[0m\u001b[37m•\u001b[0m\u001b[37m•\u001b[0m\u001b[37m•\u001b[0m\u001b[37m•\u001b[0m\u001b[37m•\u001b[0m    \n",
      "  \u001b[37m•\u001b[0m\u001b[37m•\u001b[0m\u001b[37m•\u001b[0m\u001b[37m•\u001b[0m\u001b[37m•\u001b[0m\u001b[37m•\u001b[0m\u001b[37m•\u001b[0m\u001b[37m•\u001b[0m\u001b[37m•\u001b[0m\u001b[37m•\u001b[0m\u001b[37m•\u001b[0m\u001b[37m•\u001b[0m\u001b[37m•\u001b[0m\u001b[37m•\u001b[0m\u001b[37m•\u001b[0m\u001b[37m•\u001b[0m\u001b[37m•\u001b[0m\u001b[37m•\u001b[0m\u001b[37m•\u001b[0m\u001b[37m•\u001b[0m\u001b[37m•\u001b[0m\u001b[37m•\u001b[0m\u001b[37m•\u001b[0m    \u001b[38;2;128;128;128m•\u001b[0m Extraction Sampling 0.00% (0)\n",
      "    \u001b[37m•\u001b[0m\u001b[37m•\u001b[0m\u001b[37m•\u001b[0m\u001b[37m•\u001b[0m\u001b[37m•\u001b[0m\u001b[37m•\u001b[0m\u001b[37m•\u001b[0m\u001b[37m•\u001b[0m\u001b[37m•\u001b[0m\u001b[37m•\u001b[0m\u001b[37m•\u001b[0m\u001b[37m•\u001b[0m\u001b[37m•\u001b[0m\u001b[37m•\u001b[0m\u001b[37m•\u001b[0m\u001b[37m•\u001b[0m\u001b[37m•\u001b[0m\u001b[37m•\u001b[0m\u001b[37m•\u001b[0m      \n",
      "     \u001b[37m•\u001b[0m\u001b[37m•\u001b[0m\u001b[37m•\u001b[0m\u001b[37m•\u001b[0m\u001b[37m•\u001b[0m\u001b[37m•\u001b[0m\u001b[37m•\u001b[0m\u001b[37m•\u001b[0m\u001b[37m•\u001b[0m\u001b[37m•\u001b[0m\u001b[37m•\u001b[0m\u001b[37m•\u001b[0m\u001b[37m•\u001b[0m\u001b[37m•\u001b[0m\u001b[37m•\u001b[0m\u001b[37m•\u001b[0m\u001b[37m•\u001b[0m       \u001b[35m•\u001b[0m Extraction 0.44% (601)\n",
      "       \u001b[37m•\u001b[0m\u001b[37m•\u001b[0m\u001b[37m•\u001b[0m\u001b[37m•\u001b[0m\u001b[37m•\u001b[0m\u001b[37m•\u001b[0m\u001b[37m•\u001b[0m\u001b[37m•\u001b[0m\u001b[37m•\u001b[0m\u001b[37m•\u001b[0m\u001b[37m•\u001b[0m\u001b[37m•\u001b[0m\u001b[37m•\u001b[0m         \n",
      "           \u001b[37m•\u001b[0m\u001b[37m•\u001b[0m\u001b[37m•\u001b[0m\u001b[37m•\u001b[0m\u001b[37m•\u001b[0m             \n"
     ]
    }
   ],
   "source": [
    "!./run_test.sh"
   ]
  }
 ],
 "metadata": {
  "kernelspec": {
   "display_name": ".venv",
   "language": "python",
   "name": "python3"
  },
  "language_info": {
   "codemirror_mode": {
    "name": "ipython",
    "version": 3
   },
   "file_extension": ".py",
   "mimetype": "text/x-python",
   "name": "python",
   "nbconvert_exporter": "python",
   "pygments_lexer": "ipython3",
   "version": "3.10.12"
  }
 },
 "nbformat": 4,
 "nbformat_minor": 5
}
